#!OML:ASF E:\emotionWalksFemale\Project 1\Capture day 1\Session 1\Female1.ASF
:FULLY-SPECIFIED
:DEGREES
581
root 9.58425 15.7982 7.97716 -328.045 -91.499 -26.8068
lowerback 14.7257 0.691432 -0.0989058
upperback -4.64401 0.810459 -0.70512
thorax -13.4699 0.341557 -0.937525
lowerneck -7.87556 -2.95774 -7.05172
upperneck 0.623293 -3.45004 4.65571
head 1.80824 -1.65742 2.60854
rclavicle -9.47954e-015 9.0447e-015
rhumerus -68.045 26.3816 -78.8171
rradius 34.6212
rwrist 11.6579
rhand 12.793 -50.3527
rfingers 7.12502
rthumb 37.7703 -76.2141
lclavicle -9.47954e-015 9.0447e-015
lhumerus -61.6853 -8.5832 50.296
lradius 33.422
lwrist -9.95637
lhand 26.711 -31.9101
lfingers 7.12502
lthumb 50.7272 -11.0778
rfemur -10.1012 7.47647 25.6038
rtibia 27.6966
rfoot -18.5471 -22.0035
rtoes 11.0363
lfemur -11.4373 -9.86952 -22.5772
ltibia 26.7126
lfoot -22.9081 12.4828
ltoes -13.0956
582
root 9.54831 15.8264 7.98468 -330.113 -92.0351 -25.097
lowerback 14.0031 0.817798 -0.38398
upperback -4.62434 0.926687 -0.713068
thorax -13.0102 0.421663 -0.800818
lowerneck -7.92777 -2.92041 -7.08475
upperneck 1.41451 -3.40092 4.65892
head 2.07801 -1.63539 2.62065
rclavicle 8.39555e-015 -3.47873e-015
rhumerus -68.2758 25.9214 -79.1187
rradius 34.5712
rwrist 12.3714
rhand 12.7246 -50.1177
rfingers 7.12502
rthumb 37.7057 -75.9964
lclavicle 8.39555e-015 -3.47873e-015
lhumerus -62.0508 -8.94104 51.3853
lradius 33.2324
lwrist -10.1766
lhand 26.7552 -31.9396
lfingers 7.12502
lthumb 50.7675 -11.1294
rfemur -9.01284 8.32364 25.464
rtibia 26.75
rfoot -18.7695 -22.6884
rtoes 10.7787
lfemur -10.4273 -10.8251 -23.063
ltibia 25.8842
lfoot -21.6033 13.4704
ltoes -22.2475
583
root 9.51909 15.8507 7.9973 -337.244 -92.4429 -18.1202
lowerback 13.2397 0.859523 -0.311016
upperback -4.73392 1.00914 -0.630235
thorax -12.672 0.459932 -0.757614
lowerneck -7.69145 -2.82318 -6.96643
upperneck 1.98783 -3.29524 4.46227
head 2.20988 -1.59137 2.54042
rclavicle -4.98786e-015 3.8266e-015
rhumerus -67.8504 24.8251 -78.5547
rradius 34.18
rwrist 13.6214
rhand 13.1288 -49.9814
rfingers 7.12502
rthumb 38.0875 -75.7568
lclavicle -4.98786e-015 3.8266e-015
lhumerus -62.5646 -9.04952 52.2973
lradius 32.9755
lwrist -10.655
lhand 26.3896 -32.4783
lfingers 7.12502
lthumb 50.4338 -11.4863
rfemur -8.17444 9.98296 25.7238
rtibia 25.858
rfoot -18.5649 -24.3436
rtoes 8.90435
lfemur -9.68313 -12.0289 -23.1948
ltibia 25.1582
lfoot -20.5871 13.7497
ltoes -23.5395
584
root 9.4886 15.8685 8.0087 -343.453 -92.9499 -12.0318
lowerback 12.5524 0.899332 -0.160417
upperback -4.86948 1.08796 -0.64396
thorax -12.4063 0.484622 -0.864192
lowerneck -7.68672 -2.68125 -6.62052
upperneck 2.68937 -3.14156 4.31558
head 2.42075 -1.51886 2.43719
rclavicle -5.13812e-015 -4.37326e-015
rhumerus -68.578 25.1378 -80.0049
rradius 34.6833
rwrist 12.4848
rhand 13.8591 -50.7363
rfingers 7.12502
rthumb 38.7767 -76.32
lclavicle -5.13812e-015 -4.37326e-015
lhumerus -63.0498 -9.30499 53.1426
lradius 32.7724
lwrist -10.5712
lhand 26.2279 -32.6984
lfingers 7.12502
lthumb 50.286 -11.6272
rfemur -7.63277 9.95179 25.8863
rtibia 25.1657
rfoot -17.6429 -24.5906
rtoes 4.2616
lfemur -9.0277 -13.3122 -23.3291
ltibia 24.6211
lfoot -19.534 14.1886
ltoes -20.4617
585
root 9.45488 15.8838 8.01371 -343.294 -93.4742 -12.3215
lowerback 11.7973 0.998481 -0.288102
upperback -4.92862 1.18688 -0.756113
thorax -12.0153 0.537181 -0.921204
lowerneck -7.90337 -2.59571 -6.45056
upperneck 3.48142 -3.04612 4.36443
head 2.71976 -1.47002 2.43102
rclavicle -3.13707e-016 -2.98177e-016
rhumerus -68.7651 24.5696 -80.5532
rradius 34.8306
rwrist 12.7575
rhand 14.2311 -51.3342
rfingers 7.12502
rthumb 39.1274 -76.8176
lclavicle -3.13707e-016 -2.98177e-016
lhumerus -63.1937 -9.5058 53.9113
lradius 32.5771
lwrist -10.2462
lhand 26.6481 -32.1383
lfingers 7.12502
lthumb 50.6699 -11.2745
rfemur -6.99342 10.9635 25.8225
rtibia 24.4523
rfoot -18.193 -25.2991
rtoes 4.96054
lfemur -8.44771 -14.5121 -23.7661
ltibia 24.3233
lfoot -18.3712 14.8734
ltoes -16.1984
